<?xml version="1.0" encoding="utf-8"?>
<!-- Generator: Adobe Illustrator 24.0.0, SVG Export Plug-In . SVG Version: 6.00 Build 0)  -->
<svg version="1.1" id="Layer_1" xmlns="http://www.w3.org/2000/svg" xmlns:xlink="http://www.w3.org/1999/xlink" x="0px" y="0px"
	 viewBox="0 0 176 34" style="enable-background:new 0 0 176 34;" xml:space="preserve">
<g>
	<g>
		<path d="M67.89,7.22l-5.52,19.54h-2.68l-4.02-14.29c-0.16-0.54-0.25-1.19-0.3-1.98h-0.05c-0.08,0.67-0.2,1.32-0.37,1.95
			L50.9,26.76h-2.66L42.53,7.22h2.51l4.16,14.99c0.17,0.66,0.29,1.32,0.34,1.96h0.05c0.05-0.55,0.18-1.21,0.41-1.96l4.33-14.99h2.21
			l4.13,15.1c0.15,0.56,0.26,1.17,0.33,1.81h0.05c0.04-0.47,0.17-1.09,0.37-1.87l3.99-15.04C65.41,7.22,67.89,7.22,67.89,7.22z"/>
		<path d="M72.32,8.21c0,0.42-0.15,0.77-0.44,1.04c-0.29,0.28-0.64,0.42-1.03,0.42c-0.41,0-0.75-0.13-1.04-0.4
			C69.53,9,69.39,8.65,69.39,8.21c0-0.39,0.14-0.73,0.41-1.02c0.28-0.29,0.62-0.43,1.04-0.43c0.42,0,0.77,0.14,1.05,0.42
			C72.18,7.47,72.32,7.81,72.32,8.21z M71.94,26.76H69.7V12.8h2.23V26.76z"/>
		<path d="M86.9,26.76h-2.24V18.8c0-2.95-1.08-4.43-3.24-4.43c-1.1,0-2.02,0.42-2.76,1.25c-0.74,0.83-1.11,1.89-1.11,3.18v7.96
			h-2.24V12.8h2.24v2.32h0.05c1.04-1.77,2.57-2.66,4.58-2.66c1.54,0,2.71,0.5,3.51,1.5c0.8,1,1.21,2.42,1.21,4.25V26.76z"/>
		<path d="M102.41,26.76h-2.23v-2.37h-0.06c-1.04,1.81-2.63,2.71-4.8,2.71c-1.76,0-3.16-0.63-4.21-1.9
			c-1.05-1.27-1.57-2.96-1.57-5.08c0-2.31,0.58-4.16,1.74-5.56c1.16-1.4,2.71-2.1,4.65-2.1c1.91,0,3.3,0.75,4.18,2.26h0.06V6.1h2.23
			V26.76z M100.18,20.45v-2.06c0-1.15-0.38-2.11-1.15-2.88c-0.77-0.76-1.7-1.14-2.8-1.14c-1.34,0-2.41,0.5-3.2,1.49
			c-0.79,0.99-1.18,2.37-1.18,4.14c0,1.6,0.37,2.86,1.12,3.79c0.74,0.93,1.75,1.4,3.01,1.4c1.22,0,2.23-0.44,3.02-1.33
			C99.78,22.96,100.18,21.83,100.18,20.45z"/>
		<path d="M118.91,19.73c0,2.22-0.63,4-1.89,5.35c-1.26,1.35-2.95,2.02-5.06,2.02c-2.06,0-3.71-0.66-4.94-1.97
			c-1.23-1.31-1.85-3.04-1.85-5.18c0-2.31,0.63-4.13,1.89-5.47c1.26-1.34,3-2.01,5.22-2.01c2.07,0,3.69,0.65,4.86,1.94
			C118.33,15.7,118.91,17.47,118.91,19.73z M116.62,19.81c0-1.75-0.39-3.1-1.17-4.03c-0.78-0.94-1.89-1.4-3.33-1.4
			c-1.44,0-2.57,0.48-3.41,1.44c-0.83,0.96-1.25,2.31-1.25,4.05c0,1.67,0.42,2.98,1.26,3.92c0.84,0.94,1.97,1.41,3.4,1.41
			c1.45,0,2.57-0.46,3.34-1.39C116.24,22.87,116.62,21.54,116.62,19.81z"/>
		<path d="M139.25,12.8l-4.18,13.95h-2.32l-2.88-9.99c-0.1-0.34-0.17-0.77-0.22-1.28h-0.05c-0.03,0.32-0.12,0.74-0.28,1.25
			l-3.12,10.02h-2.23l-4.21-13.95h2.34l2.88,10.49c0.09,0.36,0.15,0.78,0.19,1.25h0.11c0.02-0.34,0.11-0.77,0.26-1.28l3.2-10.47
			h2.04l2.9,10.52c0.09,0.35,0.16,0.77,0.19,1.25h0.11c0.02-0.44,0.09-0.85,0.22-1.25l2.85-10.52H139.25z"/>
		<path d="M148.77,23.02c0,1.21-0.47,2.19-1.4,2.94c-0.93,0.75-2.17,1.13-3.71,1.13c-1.32,0-2.47-0.28-3.46-0.84v-2.4
			c1.1,0.89,2.31,1.33,3.62,1.33c1.77,0,2.66-0.65,2.66-1.95c0-0.53-0.17-0.96-0.52-1.29c-0.34-0.33-1.13-0.78-2.36-1.34
			c-1.24-0.53-2.11-1.09-2.62-1.7c-0.51-0.6-0.76-1.41-0.76-2.4c0-1.15,0.46-2.12,1.39-2.89c0.93-0.77,2.1-1.16,3.53-1.16
			c1.1,0,2.1,0.22,2.99,0.65v2.25c-0.91-0.66-1.96-0.99-3.16-0.99c-0.74,0-1.33,0.18-1.78,0.55c-0.45,0.36-0.67,0.83-0.67,1.4
			c0,0.62,0.17,1.09,0.52,1.42c0.35,0.33,1.06,0.72,2.14,1.18c1.33,0.56,2.26,1.15,2.79,1.77
			C148.51,21.31,148.77,22.09,148.77,23.02z"/>
	</g>
	<g>
		<polygon points="14.6,16.6 32.72,16.6 32.72,0.64 14.6,3.17 		"/>
		<polygon points="13.85,16.6 13.85,3.28 0,5.21 0,16.6 		"/>
		<polygon points="13.85,17.36 0,17.36 0,28.79 13.85,30.72 		"/>
		<polygon points="14.6,17.36 14.6,30.83 32.72,33.36 32.72,17.36 		"/>
	</g>
	<g>
		<path d="M157.86,26.76V9.88c-0.39,0.39-1.05,0.83-1.98,1.31c-0.93,0.48-1.78,0.82-2.54,1.01V9.93c0.98-0.27,2.04-0.71,3.17-1.32
			c1.14-0.61,2.05-1.22,2.74-1.83h0.84v19.97C160.1,26.76,157.86,26.76,157.86,26.76z"/>
		<path d="M176,16.91c0,3.22-0.57,5.73-1.7,7.51c-1.14,1.78-2.75,2.68-4.85,2.68c-1.96,0-3.48-0.84-4.56-2.52
			c-1.08-1.68-1.61-4.08-1.61-7.19c0-3.4,0.56-5.99,1.68-7.79c1.12-1.8,2.75-2.7,4.9-2.7C173.95,6.9,176,10.23,176,16.91z
			 M173.71,17.13c0-5.56-1.32-8.34-3.96-8.34c-2.79,0-4.18,2.83-4.18,8.49c0,5.28,1.37,7.91,4.1,7.91
			C172.36,25.19,173.71,22.5,173.71,17.13z"/>
	</g>
</g>
</svg>
