<?xml version="1.0" encoding="utf-8"?>
<!-- Generator: Adobe Illustrator 24.0.0, SVG Export Plug-In . SVG Version: 6.00 Build 0)  -->
<svg version="1.1" id="Layer_1" xmlns="http://www.w3.org/2000/svg" xmlns:xlink="http://www.w3.org/1999/xlink" x="0px" y="0px"
	 viewBox="0 0 66 34" style="enable-background:new 0 0 66 34;" xml:space="preserve">
<g>
	<path d="M25.75,13.3V4.8c-1,1.8-2,3.4-3,4.8s-1.9,2.6-2.8,3.7H25.75z M28.95,0.3v13h2.4l1.2,2.7h-3.6v4.4h-3.2V16h-9.1v-2.7
		c1.9-2.2,3.7-4.4,5.3-6.8c1.6-2.3,2.8-4.4,3.7-6.3h3.3V0.3z"/>
	<polygon points="44.45,0.3 37.75,8.9 37.15,9.8 37.15,9.8 37.15,0.3 33.75,0.3 33.75,20.5 37.15,20.5 37.15,10.6 37.15,10.6 
		37.75,11.5 44.65,20.5 49.15,20.5 40.45,9.9 48.55,0.3 	"/>
	<path d="M8.95,29.3c0,2.9-1.4,4.4-4.1,4.4c-1.3,0-2.3-0.4-2.9-1.1c-0.7-0.7-1-1.8-1-3.2v-6.1h1.7v6.1c0,1.9,0.8,2.8,2.4,2.8
		c0.8,0,1.4-0.2,1.7-0.7c0.4-0.5,0.6-1.1,0.6-2v-6.2h1.6V29.3z"/>
	<polygon points="10.95,23.3 10.95,33.6 16.65,33.6 16.65,32.1 12.65,32.1 12.65,23.3 	"/>
	<polygon points="15.65,23.3 15.65,24.8 18.55,24.8 18.55,33.6 20.35,33.6 20.35,24.8 23.25,24.8 23.25,23.3 	"/>
	<path d="M29.25,26.2c0-0.5-0.2-0.8-0.5-1.1c-0.3-0.3-0.8-0.4-1.4-0.4h-1.4V28h1.3c0.5,0,1-0.2,1.3-0.5
		C29.15,27.2,29.25,26.8,29.25,26.2 M29.55,33.6l-1.2-3c-0.3-0.8-0.8-1.2-1.4-1.2h-0.8v4.2h-1.7V23.3h3.3c1.1,0,1.9,0.2,2.5,0.7
		s0.9,1.2,0.9,2c0,0.7-0.2,1.3-0.6,1.8s-1,0.8-1.7,1l0,0c0.2,0.1,0.4,0.2,0.6,0.5c0.2,0.2,0.4,0.5,0.5,0.8l1.6,3.3h-2V33.6z"/>
	<path d="M37.15,24.8L37.15,24.8c-0.1,0.3-0.1,0.5-0.2,0.7l-1.4,4h3.1l-1.4-4C37.25,25.5,37.25,25.2,37.15,24.8 M40.15,33.6
		l-0.9-2.6h-4.1l-0.9,2.6h-1.9l3.9-10.3h1.9l3.9,10.3H40.15z"/>
	<polygon points="52.45,23.3 52.45,27.6 47.65,27.6 47.65,23.3 45.95,23.3 45.95,33.6 47.65,33.6 47.65,29.1 52.45,29.1 52.45,33.6 
		54.15,33.6 54.15,23.3 	"/>
	<path d="M63.05,28.3c0-1.1-0.3-2-1-2.6s-1.6-0.9-2.8-0.9h-1.4v7.3h1.4c1.2,0,2.1-0.3,2.8-1C62.65,30.4,63.05,29.5,63.05,28.3
		 M64.85,28.3c0,1-0.2,2-0.7,2.8c-0.5,0.8-1.1,1.4-2,1.8c-0.9,0.4-1.8,0.6-2.9,0.6h-3.1V23.3h3.2c1.8,0,3.2,0.4,4.1,1.3
		C64.35,25.4,64.85,26.7,64.85,28.3"/>
</g>
</svg>
