<?xml version="1.0" encoding="utf-8"?>
<!-- Generator: Adobe Illustrator 24.0.0, SVG Export Plug-In . SVG Version: 6.00 Build 0)  -->
<svg version="1.1" id="Layer_1" xmlns="http://www.w3.org/2000/svg" xmlns:xlink="http://www.w3.org/1999/xlink" x="0px" y="0px"
	 viewBox="0 0 111 34" style="enable-background:new 0 0 111 34;" xml:space="preserve">
<g>
	<g>
		<path d="M16.67,0.27C7.89,0.27,0.68,7.04,0,15.66l8.97,3.71c0.76-0.52,1.68-0.82,2.67-0.82c0.09,0,0.18,0,0.26,0.01l3.99-5.78
			c0-0.03,0-0.05,0-0.08c0-3.48,2.83-6.31,6.31-6.31s6.31,2.83,6.31,6.31s-2.83,6.31-6.31,6.31c-0.05,0-0.1,0-0.14,0l-5.69,4.06
			c0,0.07,0.01,0.15,0.01,0.22c0,2.61-2.12,4.74-4.74,4.74c-2.29,0-4.21-1.64-4.64-3.8l-6.41-2.65c1.99,7.02,8.44,12.17,16.1,12.17
			c9.24,0,16.73-7.49,16.73-16.73C33.41,7.76,25.92,0.27,16.67,0.27z"/>
		<path d="M10.49,25.66l-2.06-0.85c0.36,0.76,0.99,1.39,1.83,1.74c1.81,0.75,3.89-0.1,4.65-1.91c0.36-0.88,0.37-1.84,0.01-2.72
			s-1.04-1.56-1.92-1.93c-0.87-0.36-1.8-0.35-2.62-0.04l2.12,0.88c1.33,0.56,1.96,2.09,1.41,3.42
			C13.35,25.58,11.82,26.21,10.49,25.66z"/>
		<path d="M26.4,12.69c0-2.32-1.89-4.2-4.2-4.2s-4.2,1.89-4.2,4.2s1.89,4.2,4.2,4.2S26.4,15.01,26.4,12.69z M19.04,12.68
			c0-1.74,1.41-3.16,3.16-3.16c1.74,0,3.16,1.41,3.16,3.16c0,1.74-1.41,3.16-3.16,3.16C20.46,15.84,19.04,14.42,19.04,12.68z"/>
	</g>
	<g>
		<path d="M51.28,11.72l-1.12,1.97c-0.86-0.6-2.03-0.97-3.06-0.97c-1.17,0-1.89,0.48-1.89,1.35c0,1.05,1.28,1.3,3.19,1.98
			c2.05,0.73,3.23,1.58,3.23,3.46c0,2.57-2.02,4.01-4.92,4.01c-1.42,0-3.12-0.37-4.44-1.16l0.82-2.19c1.07,0.56,2.34,0.9,3.48,0.9
			c1.53,0,2.26-0.57,2.26-1.4c0-0.96-1.11-1.24-2.9-1.84c-2.04-0.68-3.46-1.58-3.46-3.66c0-2.34,1.88-3.69,4.58-3.69
			C48.92,10.48,50.44,11.08,51.28,11.72z"/>
		<path d="M60.04,12.96V23.3H57.4V12.96h-3.83V10.7h10.29v2.26H60.04z"/>
		<path d="M69.43,12.95v2.84h5.05v2.26h-5.05v2.96h5.86v2.28h-8.5V10.7h8.5v2.26h-5.86V12.95z"/>
		<path d="M81.18,20.86l-0.83,2.45h-2.77L82.3,10.7h2.66l4.86,12.61h-2.86l-0.85-2.45C86.11,20.86,81.18,20.86,81.18,20.86z
			 M83.62,13.7l-1.72,5.05h3.48L83.62,13.7z"/>
		<path d="M103.37,15.57l-3.45,7.37h-1.49l-3.39-7.3v7.67h-2.53V10.7h2.52l4.24,9.1l4.09-9.1h2.54v12.6h-2.53V15.57z"/>
		<path d="M111,12.29c0,1.08-0.81,1.76-1.74,1.76s-1.75-0.68-1.75-1.76s0.81-1.75,1.75-1.75C110.19,10.53,111,11.2,111,12.29z
			 M107.8,12.29c0,0.91,0.65,1.48,1.45,1.48c0.8,0,1.45-0.57,1.45-1.48s-0.65-1.47-1.45-1.47C108.46,10.82,107.8,11.39,107.8,12.29z
			 M109.28,11.39c0.45,0,0.6,0.24,0.6,0.5c0,0.24-0.14,0.4-0.31,0.48l0.41,0.76h-0.33l-0.34-0.67h-0.35v0.67h-0.28V11.4
			L109.28,11.39L109.28,11.39z M108.96,12.2h0.31c0.2,0,0.32-0.13,0.32-0.28c0-0.16-0.08-0.26-0.32-0.26h-0.31V12.2z"/>
	</g>
</g>
</svg>
