<?xml version="1.0" encoding="utf-8"?>
<!-- Generator: Adobe Illustrator 24.2.3, SVG Export Plug-In . SVG Version: 6.00 Build 0)  -->
<svg version="1.1" id="Layer_1" xmlns="http://www.w3.org/2000/svg" xmlns:xlink="http://www.w3.org/1999/xlink" x="0px" y="0px"
	 viewBox="0 0 108 50.5" style="enable-background:new 0 0 108 50.5;" xml:space="preserve">
<style type="text/css">
	.st0{fill:#FFFFFF;}
</style>
<g>
	<rect y="0.2" width="108" height="50.3"/>
	<g>
		<path class="st0" d="M11.1,5c0.6,0,1.1,0.2,1.5,0.7c0.3,0.5,0.5,1.1,0.5,1.9c0,0.9-0.2,1.6-0.6,2.1c-0.4,0.5-1,0.7-1.7,0.7l0,0
			V9.2l0,0c0.5,0,0.8-0.1,1-0.4s0.3-0.7,0.3-1.2c0-0.4-0.1-0.7-0.2-1c-0.2-0.2-0.4-0.3-0.7-0.3s-0.4,0.1-0.6,0.3
			c-0.1,0.2-0.3,0.5-0.4,1l-0.1,0.5C10,8.8,9.7,9.3,9.4,9.7c-0.3,0.3-0.8,0.5-1.3,0.5c-0.6,0-1-0.2-1.3-0.6s-0.5-1-0.5-1.8
			c0-0.9,0.2-1.5,0.5-2c0.4-0.4,0.9-0.7,1.5-0.7l0,0v1.2l0,0c-0.4,0-0.6,0.1-0.8,0.4C7.3,6.9,7.2,7.3,7.2,7.8c0,0.4,0.1,0.7,0.2,0.9
			C7.5,8.9,7.7,9,8,9s0.5-0.1,0.6-0.3c0.1-0.2,0.3-0.5,0.4-1l0.1-0.6c0.2-0.8,0.4-1.3,0.7-1.7C10.2,5.2,10.6,5,11.1,5z M9.9,40.5
			c-0.3,0.3-0.5,0.9-0.7,1.7l-0.1,0.6c-0.1,0.5-0.2,0.8-0.4,1c-0.1,0.2-0.3,0.3-0.6,0.3S7.7,44,7.5,43.8c-0.1-0.2-0.2-0.5-0.2-0.9
			c0-0.5,0.1-0.8,0.3-1.1c0.2-0.2,0.4-0.3,0.8-0.4l0,0v-1.2l0,0c-0.7,0-1.2,0.3-1.5,0.7c-0.4,0.4-0.5,1.1-0.5,2
			c0,0.8,0.2,1.4,0.5,1.8s0.8,0.6,1.3,0.6s1-0.2,1.3-0.5s0.6-0.9,0.7-1.6l0.1-0.5c0.1-0.5,0.2-0.9,0.4-1c0.1-0.2,0.3-0.3,0.6-0.3
			s0.5,0.1,0.7,0.3c0.2,0.2,0.2,0.5,0.2,1s-0.1,0.9-0.3,1.2c-0.2,0.3-0.5,0.4-1,0.4l0,0v1.2l0,0c0.7,0,1.3-0.3,1.7-0.7
			c0.4-0.5,0.6-1.2,0.6-2.1c0-0.8-0.2-1.5-0.5-1.9c-0.4-0.5-0.8-0.7-1.5-0.7C10.6,40,10.2,40.2,9.9,40.5z M13,24.7V26l0,0
			c-0.2,0.1-0.4,0.2-0.8,0.2h-0.7c-0.4,0-0.7,0.1-0.8,0.3c-0.2,0.2-0.2,0.4-0.2,0.8v1.6H13v1.3H6.5v-3c0-0.1,0-0.3,0-0.4v0.1
			c0-0.5,0.2-0.9,0.4-1.2c0,0,0,0-0.1,0.1c0-0.1,0.1-0.2,0.2-0.2C7.3,25.2,7.8,25,8.3,25c0.8,0,1.3,0.4,1.6,1.1
			c0.1-0.3,0.3-0.5,0.5-0.7c0.2-0.1,0.5-0.2,0.9-0.2l1-0.1C12.5,24.9,12.8,24.8,13,24.7L13,24.7z M8.4,26.1c-0.3,0-0.5,0.1-0.7,0.3
			c-0.2,0.2-0.2,0.5-0.2,0.8v1.6h2v-1.6c0-0.3-0.1-0.6-0.3-0.8S8.8,26.1,8.4,26.1z M6.5,22H13v-1.3H6.5V22z M7.6,12.9H6.5v4.8H13
			v-4.8h-1.1v3.6h-1.7v-3.2H9.1v3.2H7.6V12.9z M7.6,32.7H6.5v4.8H13v-4.8h-1.1v3.6h-1.7v-3.2H9.1v3.2H7.6V32.7z M15.8,45.5h8.7
			l6.6-9l-4.3-6L15.8,45.5z M53.7,5.2H45l-5.4,7.4l4.3,6L53.7,5.2z M25.7,5.2H17l29.3,40.3H55L25.7,5.2z"/>
		<rect x="60.7" y="5.2" class="st0" width="1.8" height="40.3"/>
		<g>
			<path class="st0" d="M72.7,23.6c1.5,1.4,3.1,2.2,5.7,2.9l4.1-5.7c-2.3-0.6-3-1-4-1.8c-1.2-0.9-1.5-1.8-1.5-3.5s0.6-2.8,1.9-3.7
				c1.3-0.9,2.7-1.2,5.2-1.2c6.8,0,9,3.1,10.6,5.5l3.9-5.4c-0.6-0.9-1.8-2.3-2.7-3C93.4,5.5,89,4.5,84,4.5c-4.2,0-8.2,1-10.7,2.9
				s-4.2,5.2-4.2,8.3C69.2,18.8,70.7,21.8,72.7,23.6z"/>
			<path class="st0" d="M98.4,26.1c-1.8-1.7-4.3-2.7-8.3-3.7l-4.2,5.8l0.7,0.2c3.3,0.7,4.3,1.5,5.6,2.4c1,0.7,1.7,1.7,1.7,3.4
				c0,2.1-0.5,3.3-2,4.4s-3.3,1.5-6.1,1.5c-4.8,0-9.7-2.1-11.8-7.2l-4.3,5.8c0.7,1.3,2.2,3.2,3.4,4.1c2.8,2.3,7.4,3.5,12.5,3.5
				c4.7,0,9.2-1.2,11.8-3.3c2.9-2.3,4.4-4.9,4.4-9C101.7,30.6,100.7,28.4,98.4,26.1z"/>
		</g>
	</g>
</g>
</svg>
