<?xml version="1.0" encoding="utf-8"?>
<!-- Generator: Adobe Illustrator 24.0.0, SVG Export Plug-In . SVG Version: 6.00 Build 0)  -->
<svg version="1.1" id="Layer_1" xmlns="http://www.w3.org/2000/svg" xmlns:xlink="http://www.w3.org/1999/xlink" x="0px" y="0px"
	 viewBox="0 0 169 34" style="enable-background:new 0 0 169 34;" xml:space="preserve">
<g id="Xbox_Logo_Horizontal_White">
	<g>
		<g>
			<path d="M108.06,27.31l-6.43-8.73l-6.43,8.73h-2.65l7.73-10.55l-7.06-9.59h2.65l5.76,7.82l5.75-7.82h2.65l-7.06,9.58l7.73,10.55
				H108.06z M55.3,27.31l-6.43-8.73l-6.43,8.73h-2.65l7.73-10.55l-7.06-9.59h2.65l5.76,7.82l5.75-7.82h2.65l-7.06,9.58l7.73,10.55
				H55.3z M74.39,21.43c0,3.63-2.75,5.88-7.18,5.88l-8.17,0v-9.43h-4.18c0.3-0.45,1.11-1.56,1.46-2.02h2.73V7.17h8.17
				c6.07,0,6.55,4.19,6.55,5.48c0,1.74-0.96,3.24-2.42,4.03c0.45,0.2,0.9,0.48,1.32,0.84C73.8,18.5,74.39,19.84,74.39,21.43
				 M61.3,15.85h5.91c2.72,0,4.28-1.26,4.28-3.38c0-2.8-2.68-3.2-4.28-3.2H61.3V15.85z M72.14,21.39c0-2.89-2.68-3.51-4.93-3.51
				H61.3v7.33h5.91C69.06,25.21,72.14,24.71,72.14,21.39 M94.62,17.23c0,6.2-3.94,10.52-9.59,10.52c-5.66,0-9.61-4.32-9.61-10.52
				c0-6.19,3.95-10.52,9.61-10.52C90.68,6.71,94.62,11.04,94.62,17.23 M92.33,17.23c0-4.94-3-8.39-7.3-8.39
				c-4.31,0-7.33,3.45-7.33,8.39c0,4.94,3.02,8.39,7.33,8.39C89.33,25.62,92.33,22.17,92.33,17.23"/>
			<polygon points="149.75,7.17 149.75,23.72 137.58,7.18 135.59,7.18 135.59,27.3 137.83,27.3 137.83,11.14 149.75,27.31 
				151.99,27.31 151.99,7.17 			"/>
			<path d="M133.54,17.23c0,6.2-3.94,10.52-9.59,10.52c-5.66,0-9.61-4.32-9.61-10.52c0-6.19,3.95-10.52,9.61-10.52
				C129.6,6.71,133.54,11.04,133.54,17.23 M131.26,17.23c0-4.94-3-8.39-7.3-8.39c-4.31,0-7.33,3.45-7.33,8.39
				c0,4.94,3.02,8.39,7.33,8.39C128.25,25.62,131.26,22.17,131.26,17.23"/>
			<polygon points="156.77,25.34 156.77,17.89 167.85,17.89 167.85,15.92 156.77,15.92 156.77,9.14 168.6,9.14 168.6,7.17 
				154.51,7.17 154.51,27.31 168.74,27.31 168.74,25.34 			"/>
			<path d="M5.29,5.07C5.28,5.08,5.27,5.08,5.28,5.08v0C2.2,8.12,0.29,12.34,0.29,17c0,3.82,1.28,7.33,3.43,10.15
				c0.02,0.03,0.06,0.04,0.09,0.03c0.03-0.02,0.03-0.05,0.02-0.09c-1.28-3.95,5.25-13.52,8.62-17.53c0.01-0.01,0.02-0.03,0.02-0.05
				c0-0.02-0.01-0.04-0.03-0.06C6.77,3.81,5.26,5.1,5.28,5.08"/>
			<path d="M28.8,5.07c0.01,0.01,0.02,0.01,0.01,0.01v0c3.08,3.04,4.98,7.25,4.98,11.92c0,3.82-1.28,7.33-3.42,10.15
				c-0.02,0.03-0.06,0.04-0.09,0.03c-0.03-0.02-0.03-0.05-0.02-0.09c1.28-3.95-5.24-13.53-8.62-17.54
				c-0.01-0.01-0.02-0.03-0.02-0.05c0-0.02,0.01-0.04,0.03-0.06c5.68-5.65,7.18-4.35,7.16-4.36"/>
			<path d="M17.04,0.25c3.38,0,6.16,0.93,8.73,2.45c0.03,0.02,0.04,0.05,0.03,0.08c-0.01,0.03-0.05,0.04-0.08,0.03
				c-3.24-0.7-8.17,2.1-8.64,2.38c-0.01,0.01-0.02,0.01-0.04,0.01c-0.01,0-0.03-0.01-0.04-0.01c-1.24-0.71-5.79-3.1-8.66-2.36
				c-0.03,0.01-0.07,0-0.08-0.03c-0.01-0.03,0-0.07,0.03-0.08C10.86,1.18,13.67,0.25,17.04,0.25"/>
			<path d="M17.04,13.68c0.02,0,0.04,0.02,0.05,0.03c5.01,3.81,13.59,13.24,10.97,15.9l0,0c0,0,0,0,0,0h0
				c-2.95,2.58-6.8,4.14-11.03,4.14c-4.22,0-8.08-1.56-11.03-4.14h0c0,0,0,0,0,0l0,0c-2.62-2.66,5.96-12.09,10.97-15.9
				C17,13.7,17.02,13.68,17.04,13.68"/>
		</g>
	</g>
</g>
</svg>
