<?xml version="1.0" encoding="utf-8"?>
<!-- Generator: Adobe Illustrator 24.0.0, SVG Export Plug-In . SVG Version: 6.00 Build 0)  -->
<svg version="1.1" id="Layer_1" xmlns="http://www.w3.org/2000/svg" xmlns:xlink="http://www.w3.org/1999/xlink" x="0px" y="0px"
	 viewBox="0 0 104 34" style="enable-background:new 0 0 104 34;" xml:space="preserve">
<g>
	<path d="M45.6,12c0.04,0.14,0.1,0.29,0.18,0.45l3.83,6.59h3.61l-5.73-9.13l5.66-8.98h-3.38c-2.43,4.1-3.69,6.22-3.76,6.37
		c-0.07,0.15-0.2,0.46-0.39,0.93h-0.05c-0.11-0.38-0.32-0.83-0.62-1.35l-3.23-5.95h-3.7l5.53,9.03l-6.05,9.08h3.65l3.9-6.59
		c0.09-0.16,0.16-0.31,0.2-0.45c0.04-0.14,0.1-0.29,0.16-0.46h0.05C45.52,11.7,45.56,11.86,45.6,12z"/>
	<path d="M66.15,17.59c1.17-0.97,1.75-2.24,1.75-3.83c0-1.21-0.36-2.21-1.09-2.99c-0.73-0.78-1.74-1.26-3.02-1.43V9.3
		c0.98-0.3,1.76-0.83,2.36-1.59c0.6-0.76,0.9-1.62,0.9-2.6c0-1.28-0.5-2.29-1.5-3.04c-1-0.75-2.37-1.12-4.1-1.12h-5.72v18.11h5.92
		C63.48,19.05,64.98,18.56,66.15,17.59z M58.72,3.42h1.96c1.05,0,1.85,0.2,2.38,0.59c0.53,0.39,0.8,0.95,0.8,1.66
		c0,0.89-0.28,1.58-0.84,2.05c-0.56,0.48-1.35,0.71-2.37,0.71h-1.93V3.42z M58.72,16.56v-5.63h2.27c1.24,0,2.17,0.24,2.79,0.73
		c0.62,0.49,0.93,1.17,0.93,2.03c0,0.88-0.31,1.57-0.92,2.09c-0.61,0.52-1.46,0.78-2.54,0.78H58.72z"/>
	<path d="M74.22,18.22c1.31,0.76,2.8,1.14,4.46,1.14c1.73,0,3.27-0.39,4.62-1.18c1.34-0.79,2.37-1.9,3.09-3.35
		c0.72-1.44,1.08-3.12,1.08-5.02C87.47,8,87.11,6.4,86.4,5c-0.72-1.4-1.72-2.48-3.01-3.23c-1.29-0.76-2.76-1.14-4.41-1.14
		c-1.79,0-3.36,0.4-4.71,1.19c-1.35,0.79-2.38,1.92-3.1,3.37c-0.72,1.46-1.08,3.14-1.08,5.04c0,1.78,0.36,3.37,1.08,4.76
		C71.89,16.38,72.91,17.46,74.22,18.22z M74.79,5.16c1.01-1.24,2.37-1.86,4.07-1.86c1.69,0,3.02,0.59,3.98,1.77
		c0.96,1.18,1.45,2.86,1.45,5.02c0,2.1-0.5,3.72-1.5,4.87c-1,1.15-2.35,1.73-4.06,1.73c-1.05,0-2-0.28-2.83-0.83
		c-0.83-0.55-1.48-1.34-1.94-2.36c-0.46-1.02-0.69-2.19-0.69-3.52C73.28,8.01,73.78,6.4,74.79,5.16z"/>
	<path d="M96.14,12c0.04,0.14,0.1,0.29,0.18,0.45l3.83,6.59h3.61l-5.73-9.13l5.66-8.98h-3.38c-2.43,4.1-3.69,6.22-3.76,6.37
		s-0.2,0.46-0.39,0.93h-0.05C96,7.86,95.79,7.41,95.49,6.88l-3.23-5.95h-3.7l5.53,9.03l-6.05,9.08h3.65l3.9-6.59
		c0.09-0.16,0.16-0.31,0.2-0.45c0.04-0.14,0.1-0.29,0.16-0.46h0.05C96.06,11.7,96.1,11.86,96.14,12z"/>
	<path d="M39.54,23.45H37.5v7.43h0.87v-2.81h0.98c0.8,0,1.45-0.22,1.95-0.66c0.5-0.44,0.74-1.02,0.74-1.74
		c0-0.7-0.22-1.25-0.65-1.63C40.95,23.64,40.34,23.45,39.54,23.45z M40.66,26.87c-0.32,0.27-0.77,0.41-1.37,0.41h-0.91v-3.04h1.02
		c1.16,0,1.74,0.49,1.74,1.48C41.13,26.21,40.97,26.6,40.66,26.87z"/>
	<rect x="43.33" y="23.02" width="0.85" height="7.85"/>
	<path d="M47.78,25.44c-0.29,0-0.63,0.05-1,0.16s-0.64,0.22-0.8,0.34v0.87c0.51-0.43,1.09-0.65,1.73-0.65
		c0.73,0,1.09,0.45,1.09,1.35l-1.59,0.22c-1.17,0.17-1.75,0.74-1.75,1.73c0,0.47,0.15,0.84,0.46,1.12c0.31,0.28,0.72,0.42,1.23,0.42
		c0.72,0,1.26-0.32,1.63-0.96h0.02v0.83h0.85v-3.45C49.65,26.1,49.03,25.44,47.78,25.44z M48.8,28.72c0,0.45-0.14,0.82-0.41,1.11
		c-0.27,0.3-0.62,0.45-1.04,0.45c-0.3,0-0.54-0.08-0.73-0.24c-0.19-0.16-0.28-0.37-0.28-0.64c0-0.33,0.09-0.57,0.26-0.71
		c0.18-0.15,0.48-0.25,0.92-0.31l1.28-0.18V28.72z"/>
	<path d="M53.08,29.66c-0.06,0.18-0.09,0.31-0.1,0.39h-0.03l-0.11-0.4l-1.43-4.08h-0.95l2.07,5.29l-0.42,1.01
		c-0.21,0.51-0.54,0.76-0.97,0.76c-0.15,0-0.32-0.03-0.5-0.09v0.76c0.15,0.04,0.33,0.06,0.55,0.06c0.79,0,1.4-0.55,1.83-1.64
		l2.44-6.15h-0.88L53.08,29.66z"/>
	<path d="M60.95,23.45l-2.84,7.43h0.96l0.74-2.08h3.15l0.78,2.08h0.96l-2.86-7.43H60.95z M60.11,28.01l1.15-3.16
		c0.04-0.12,0.08-0.28,0.11-0.5h0.02c0.05,0.26,0.09,0.43,0.12,0.5l1.16,3.16H60.11z"/>
	<path d="M68.04,25.44c-0.76,0-1.34,0.34-1.74,1.01h-0.02v-0.88h-0.85v5.3h0.85v-3.02c0-0.49,0.14-0.89,0.42-1.21
		s0.63-0.47,1.05-0.47c0.82,0,1.23,0.56,1.23,1.68v3.02h0.85v-3.25c0-0.7-0.15-1.24-0.46-1.62C69.07,25.63,68.62,25.44,68.04,25.44z
		"/>
	<path d="M73.26,29.66c-0.06,0.18-0.09,0.31-0.1,0.39h-0.03l-0.11-0.4l-1.43-4.08h-0.95l2.07,5.29l-0.42,1.01
		c-0.21,0.51-0.54,0.76-0.97,0.76c-0.15,0-0.32-0.03-0.5-0.09v0.76c0.15,0.04,0.33,0.06,0.55,0.06c0.79,0,1.4-0.55,1.83-1.64
		l2.44-6.15h-0.88L73.26,29.66z"/>
	<path d="M81.59,29.57c-0.05,0.15-0.08,0.31-0.08,0.48h-0.04c-0.01-0.18-0.04-0.34-0.07-0.48l-1.1-4h-0.78l-1.22,3.98
		c-0.06,0.19-0.09,0.36-0.1,0.49h-0.04c-0.01-0.18-0.04-0.34-0.07-0.48l-1.09-3.99H76.1l1.6,5.3h0.85l1.19-3.81
		c0.06-0.2,0.1-0.36,0.11-0.48h0.02c0.02,0.19,0.04,0.36,0.08,0.49l1.09,3.8h0.88l1.59-5.3h-0.84L81.59,29.57z"/>
	<path d="M87.11,25.44c-0.75,0-1.33,0.34-1.74,1.01h-0.02v-3.43H84.5v7.85h0.85v-3c0-0.49,0.14-0.9,0.42-1.22
		c0.28-0.32,0.63-0.48,1.05-0.48c0.82,0,1.23,0.55,1.23,1.65v3.05h0.85V27.6C88.9,26.16,88.3,25.44,87.11,25.44z"/>
	<path d="M92.53,25.44c-0.46,0-0.87,0.12-1.24,0.36c-0.37,0.24-0.67,0.57-0.88,1.01c-0.21,0.43-0.32,0.91-0.32,1.44
		c0,0.86,0.21,1.54,0.64,2.03C91.16,30.76,91.75,31,92.5,31c0.77,0,1.38-0.17,1.84-0.51V29.7c-0.49,0.39-1.04,0.58-1.64,0.58
		c-0.54,0-0.95-0.16-1.26-0.47c-0.3-0.32-0.46-0.77-0.47-1.37h3.74v-0.45c0-0.8-0.19-1.43-0.58-1.88
		C93.76,25.66,93.22,25.44,92.53,25.44z M90.98,27.71c0.07-0.47,0.25-0.84,0.53-1.12c0.28-0.28,0.62-0.42,1.01-0.42
		c0.42,0,0.74,0.14,0.97,0.41c0.23,0.27,0.35,0.65,0.35,1.14H90.98z"/>
	<path d="M97.37,25.79c-0.24,0.21-0.43,0.5-0.54,0.87h-0.02v-1.09h-0.85v5.3h0.85v-2.7c0-0.57,0.12-1.03,0.35-1.38
		c0.23-0.35,0.54-0.53,0.92-0.53c0.28,0,0.49,0.06,0.65,0.17v-0.88c-0.12-0.05-0.29-0.07-0.51-0.07
		C97.9,25.48,97.62,25.58,97.37,25.79z"/>
	<path d="M101.55,25.44c-0.46,0-0.87,0.12-1.24,0.36c-0.37,0.24-0.67,0.57-0.88,1.01c-0.21,0.43-0.32,0.91-0.32,1.44
		c0,0.86,0.21,1.54,0.64,2.03c0.42,0.49,1.01,0.73,1.77,0.73c0.77,0,1.38-0.17,1.84-0.51V29.7c-0.49,0.39-1.04,0.58-1.64,0.58
		c-0.54,0-0.95-0.16-1.26-0.47c-0.3-0.32-0.46-0.77-0.47-1.37h3.74v-0.45c0-0.8-0.19-1.43-0.58-1.88
		C102.77,25.66,102.24,25.44,101.55,25.44z M100,27.71c0.07-0.47,0.25-0.84,0.53-1.12c0.28-0.28,0.62-0.42,1.01-0.42
		c0.42,0,0.74,0.14,0.97,0.41c0.23,0.27,0.35,0.65,0.35,1.14H100z"/>
	<path d="M-0.24,33.37H28.4V23.14H-0.24V33.37z M26.35,25.18v6.14H1.81v-2.05h12.27v-2.05H1.81v-2.05H26.35z"/>
	<circle cx="23.28" cy="28.25" r="1.02"/>
	<path d="M24.31,13.51V0.64H3.85v12.87l-3.37,3.37c-0.47,0.47-0.72,1.09-0.72,1.75c0,1.36,1.11,2.47,2.47,2.47h23.7
		c1.36,0,2.47-1.11,2.47-2.47c0-0.66-0.26-1.28-0.72-1.75L24.31,13.51z M5.9,2.68h16.36v10.23H5.9V2.68z M25.93,19.05H2.23
		c-0.23,0-0.42-0.19-0.42-0.42c0-0.11,0.04-0.22,0.12-0.3l3.37-3.37h17.56l3.37,3.37c0.08,0.08,0.12,0.19,0.12,0.3
		C26.35,18.86,26.16,19.05,25.93,19.05z"/>
</g>
</svg>
